<svg xmlns="http://www.w3.org/2000/svg" viewBox="0 0 200 200">
  <defs>
    <linearGradient id="grad1" x1="0%" y1="0%" x2="100%" y2="100%">
      <stop offset="0%" style="stop-color:#2496ED;stop-opacity:1" />
      <stop offset="100%" style="stop-color:#1D63ED;stop-opacity:1" />
    </linearGradient>
    <linearGradient id="grad2" x1="0%" y1="0%" x2="100%" y2="100%">
      <stop offset="0%" style="stop-color:#8B5CF6;stop-opacity:1" />
      <stop offset="100%" style="stop-color:#6D28D9;stop-opacity:1" />
    </linearGradient>
  </defs>

  <!-- Background circle -->
  <circle cx="100" cy="100" r="95" fill="url(#grad1)" />

  <!-- Docker whale body -->
  <ellipse cx="100" cy="115" rx="55" ry="30" fill="white"/>

  <!-- Docker containers (cargo) -->
  <rect x="55" y="85" width="15" height="12" rx="2" fill="url(#grad2)"/>
  <rect x="73" y="85" width="15" height="12" rx="2" fill="url(#grad2)"/>
  <rect x="91" y="85" width="15" height="12" rx="2" fill="url(#grad2)"/>
  <rect x="109" y="85" width="15" height="12" rx="2" fill="url(#grad2)"/>
  <rect x="127" y="85" width="15" height="12" rx="2" fill="url(#grad2)"/>

  <rect x="64" y="70" width="15" height="12" rx="2" fill="url(#grad2)"/>
  <rect x="82" y="70" width="15" height="12" rx="2" fill="url(#grad2)"/>
  <rect x="100" y="70" width="15" height="12" rx="2" fill="url(#grad2)"/>
  <rect x="118" y="70" width="15" height="12" rx="2" fill="url(#grad2)"/>

  <rect x="73" y="55" width="15" height="12" rx="2" fill="url(#grad2)"/>
  <rect x="91" y="55" width="15" height="12" rx="2" fill="url(#grad2)"/>
  <rect x="109" y="55" width="15" height="12" rx="2" fill="url(#grad2)"/>

  <!-- Whale tail -->
  <path d="M 45 115 Q 25 100 35 80 Q 45 95 50 110" fill="white"/>

  <!-- UV lightning bolt -->
  <path d="M 95 140 L 105 155 L 100 155 L 110 175 L 97 158 L 102 158 L 92 140" fill="#F59E0B" stroke="#D97706" stroke-width="1"/>

  <!-- Python symbol hint -->
  <circle cx="155" cy="130" r="8" fill="#FFD43B"/>
  <circle cx="165" cy="140" r="8" fill="#306998"/>
</svg>
